<?xml version="1.0" encoding="utf-8"?>
<!-- Generator: Adobe Illustrator 23.0.4, SVG Export Plug-In . SVG Version: 6.00 Build 0)  -->
<svg version="1.1" id="Capa_1" xmlns="http://www.w3.org/2000/svg" xmlns:xlink="http://www.w3.org/1999/xlink" x="0px" y="0px"
	 viewBox="0 0 100 100" style="enable-background:new 0 0 100 100;" xml:space="preserve">
<style type="text/css">
	.st0{fill:#169CEE;}
	.st1{display:none;fill:#169CEE;}
	.st2{fill:#FFFFFF;}
	.st3{font-family:'MyriadPro-Bold';}
	.st4{font-size:50px;}
</style>
<g>
	<g>
		<path class="st0" d="M50,0C31.3,0,16.1,15.2,16.1,33.9c0,7.5,4.4,19,13.9,36c6.5,11.6,12.9,21.4,13.2,21.9l4.7,7.1
			c0.5,0.7,1.3,1.1,2.1,1.1s1.7-0.4,2.1-1.1l4.7-7.1c0.3-0.4,6.7-10.1,13.2-21.9c9.5-17,13.9-28.5,13.9-36C83.9,15.2,68.7,0,50,0z"
			/>
		<path class="st1" d="M50,14.9c-10.4,0-18.8,8.4-18.8,18.8S39.6,52.5,50,52.5s18.8-8.4,18.8-18.8S60.4,14.9,50,14.9z M50,47.5
			c-7.6,0-13.7-6.2-13.7-13.7S42.4,20,50,20c7.6,0,13.7,6.2,13.7,13.7S57.6,47.5,50,47.5z"/>
	</g>
</g>
<text transform="matrix(1 0 0 1 36.0527 51.6165)" class="st2 st3 st4">$</text>
</svg>
